<?xml version="1.0" encoding="UTF-8" standalone="no"?>
<!-- Created with Inkscape (http://www.inkscape.org/) -->

<svg
   xmlns:dc="http://purl.org/dc/elements/1.1/"
   xmlns:cc="http://creativecommons.org/ns#"
   xmlns:rdf="http://www.w3.org/1999/02/22-rdf-syntax-ns#"
   xmlns:svg="http://www.w3.org/2000/svg"
   xmlns="http://www.w3.org/2000/svg"
   xmlns:sodipodi="http://sodipodi.sourceforge.net/DTD/sodipodi-0.dtd"
   xmlns:inkscape="http://www.inkscape.org/namespaces/inkscape"
   version="1.1"
   id="svg2"
   width="563"
   height="23"
   viewBox="0 0 563.00002 23"
   sodipodi:docname="LIFS.svg"
   inkscape:version="0.92.5 (2060ec1f9f, 2020-04-08)">
  <metadata
     id="metadata8">
    <rdf:RDF>
      <cc:Work
         rdf:about="">
        <dc:format>image/svg+xml</dc:format>
        <dc:type
           rdf:resource="http://purl.org/dc/dcmitype/StillImage" />
        <dc:title></dc:title>
      </cc:Work>
    </rdf:RDF>
  </metadata>
  <defs
     id="defs6" />
  <sodipodi:namedview
     pagecolor="#ffffff"
     bordercolor="#666666"
     borderopacity="1"
     objecttolerance="10"
     gridtolerance="10"
     guidetolerance="10"
     inkscape:pageopacity="0"
     inkscape:pageshadow="2"
     inkscape:window-width="1920"
     inkscape:window-height="1017"
     id="namedview4"
     showgrid="false"
     inkscape:zoom="2.4325567"
     inkscape:cx="283.46021"
     inkscape:cy="-40.756146"
     inkscape:window-x="0"
     inkscape:window-y="0"
     inkscape:window-maximized="1"
     inkscape:current-layer="svg2" />
  <g
     aria-label="Informatics for Life Sciences"
     transform="matrix(1,0,-0.05458071,1,150.6803,-107.89585)"
     style="font-style:normal;font-weight:normal;font-size:40px;line-height:1.25;font-family:sans-serif;letter-spacing:0px;word-spacing:0px;fill:#71a9cd;fill-opacity:1;stroke:none"
     id="flowRoot817-3">
    <path
       d="m 61.015,130.54385 v -20.53334 h 2.786667 v 20.53334 z"
       style="font-style:normal;font-variant:normal;font-weight:normal;font-stretch:normal;font-size:29.33333397px;font-family:ABeeZee;-inkscape-font-specification:ABeeZee;letter-spacing:-0.80000001px;word-spacing:0px;fill:#71a9cd;fill-opacity:1"
       id="path1096" />
    <path
       d="m 70.540323,117.84252 q 0.821333,-1.232 2.082666,-2.05334 1.290667,-0.85066 3.050667,-0.85066 2.581334,0 3.842667,1.55466 1.290667,1.55467 1.290667,4.10667 v 9.944 h -2.64 v -9.65067 q 0,-1.672 -0.762667,-2.64 -0.762667,-0.99733 -2.170667,-0.99733 -0.674667,0 -1.32,0.264 -0.645333,0.23467 -1.261333,0.67467 -0.586667,0.44 -1.114667,1.02666 -0.498667,0.58667 -0.909333,1.232 v 10.09067 h -2.64 v -15.25333 h 2.552 z"
       style="font-style:normal;font-variant:normal;font-weight:normal;font-stretch:normal;font-size:29.33333397px;font-family:ABeeZee;-inkscape-font-specification:ABeeZee;letter-spacing:-0.80000001px;word-spacing:0px;fill:#71a9cd;fill-opacity:1"
       id="path1098" />
    <path
       d="m 93.089629,111.68252 q -0.616,-0.32267 -1.32,-0.58667 -0.704,-0.264 -1.554666,-0.264 -1.232,0 -1.994667,0.792 -0.733333,0.76267 -0.733333,2.25867 v 1.96533 h 4.517333 v 2.288 h -4.517333 v 12.408 h -2.64 v -12.408 h -2.346667 v -2.288 h 2.346667 v -1.78933 q 0,-1.29067 0.381333,-2.31734 0.381333,-1.02666 1.056,-1.76 0.674667,-0.73333 1.642667,-1.11467 0.968,-0.38133 2.112,-0.38133 1.232,0 2.112,0.29333 0.909333,0.264 1.730667,0.67467 z"
       style="font-style:normal;font-variant:normal;font-weight:normal;font-stretch:normal;font-size:29.33333397px;font-family:ABeeZee;-inkscape-font-specification:ABeeZee;letter-spacing:-0.80000001px;word-spacing:0px;fill:#71a9cd;fill-opacity:1"
       id="path1100" />
    <path
       d="m 104.84425,122.91718 q 0,-1.144 -0.38134,-2.17066 -0.352,-1.02667 -1.02666,-1.78934 -0.64534,-0.76266 -1.55467,-1.20266 -0.88,-0.46934 -1.936002,-0.46934 -2.317333,0 -3.608,1.52534 -1.290666,1.52533 -1.290666,4.048 0,1.144 0.352,2.2 0.381333,1.02666 1.026666,1.81866 0.674667,0.76267 1.554667,1.232 0.909333,0.44 1.965333,0.44 1.144002,0 2.053332,-0.41066 0.90934,-0.41067 1.52534,-1.144 0.64533,-0.76267 0.968,-1.78934 0.352,-1.02666 0.352,-2.288 z m -12.496005,0 q 0,-1.848 0.586667,-3.31466 0.586666,-1.496 1.584,-2.52267 1.026666,-1.02667 2.405333,-1.584 1.408,-0.55733 3.021333,-0.55733 1.584002,0 2.962672,0.55733 1.408,0.55733 2.43466,1.584 1.02667,1.02667 1.61334,2.49333 0.58666,1.46667 0.58666,3.28534 0,1.81866 -0.58666,3.31466 -0.55734,1.46667 -1.584,2.52267 -1.02667,1.056 -2.43467,1.64267 -1.37867,0.55733 -2.992002,0.55733 -1.642666,0 -3.050666,-0.58667 -1.378667,-0.58666 -2.405334,-1.64266 -0.997333,-1.056 -1.584,-2.52267 -0.557333,-1.46667 -0.557333,-3.22667 z"
       style="font-style:normal;font-variant:normal;font-weight:normal;font-stretch:normal;font-size:29.33333397px;font-family:ABeeZee;-inkscape-font-specification:ABeeZee;letter-spacing:-0.80000001px;word-spacing:0px;fill:#71a9cd;fill-opacity:1"
       id="path1102" />
    <path
       d="m 118.5349,117.84252 q -0.55733,-0.23467 -1.32,-0.23467 -0.82133,0 -1.61333,0.352 -0.76267,0.352 -1.37867,1.056 -0.58667,0.704 -0.968,1.81867 -0.352,1.08533 -0.352,2.58133 v 7.128 h -2.64 v -15.25333 h 2.552 v 3.31466 q 0.264,-0.704 0.704,-1.37866 0.44,-0.67467 1.02667,-1.17334 0.616,-0.49866 1.408,-0.792 0.792,-0.32266 1.76,-0.32266 0.44,0 0.85066,0.0587 0.44,0.0293 0.76267,0.11734 z"
       style="font-style:normal;font-variant:normal;font-weight:normal;font-stretch:normal;font-size:29.33333397px;font-family:ABeeZee;-inkscape-font-specification:ABeeZee;letter-spacing:-0.80000001px;word-spacing:0px;fill:#71a9cd;fill-opacity:1"
       id="path1104" />
    <path
       d="m 123.71885,117.84252 q 0.82133,-1.232 2.05333,-2.05334 1.26134,-0.85066 2.904,-0.85066 1.81867,0 2.96267,0.88 1.144,0.85066 1.64267,2.34666 0.90933,-1.34933 2.14133,-2.288 1.26133,-0.93866 3.10933,-0.93866 1.232,0 2.14134,0.41066 0.93866,0.41067 1.55466,1.17334 0.616,0.73333 0.90934,1.78933 0.32266,1.02667 0.32266,2.288 v 9.944 h -2.64 v -9.73867 q 0,-1.584 -0.73333,-2.552 -0.73333,-0.99733 -2.024,-0.99733 -0.67467,0 -1.29067,0.264 -0.616,0.264 -1.17333,0.73333 -0.55733,0.44 -1.056,1.056 -0.49867,0.58667 -0.90933,1.232 v 10.00267 h -2.64 v -9.73867 q 0,-1.584 -0.73334,-2.552 -0.73333,-0.99733 -2.024,-0.99733 -0.64533,0 -1.26133,0.264 -0.616,0.23467 -1.20267,0.67467 -0.55733,0.44 -1.056,1.02666 -0.49866,0.58667 -0.90933,1.232 v 10.09067 h -2.64 v -15.25333 h 2.552 z"
       style="font-style:normal;font-variant:normal;font-weight:normal;font-stretch:normal;font-size:29.33333397px;font-family:ABeeZee;-inkscape-font-specification:ABeeZee;letter-spacing:-0.80000001px;word-spacing:0px;fill:#71a9cd;fill-opacity:1"
       id="path1106" />
    <path
       d="m 146.18015,123.00518 q 0,-1.70133 0.528,-3.168 0.528,-1.496 1.46667,-2.58133 0.968,-1.08533 2.288,-1.70133 1.34933,-0.616 2.93333,-0.616 1.32,0 2.376,0.46933 1.08534,0.44 1.87734,1.11467 v -1.232 h 2.40533 v 11.55733 q 0,1.11467 0.528,1.46667 0.55733,0.32266 1.20267,0.32266 l -0.55734,2.05334 q -2.816,0 -3.40266,-2.288 -0.352,0.46933 -0.82134,0.93866 -0.44,0.44 -1.02666,0.792 -0.58667,0.352 -1.32,0.55734 -0.73334,0.20533 -1.61334,0.20533 -1.43733,0 -2.69866,-0.55733 -1.232,-0.55734 -2.17067,-1.584 -0.90933,-1.02667 -1.46667,-2.464 -0.528,-1.46667 -0.528,-3.28534 z m 7.45067,5.544 q 1.11467,0 2.112,-0.528 0.99733,-0.528 1.672,-1.37866 v -8.184 q -0.792,-0.55734 -1.76,-0.88 -0.93867,-0.352 -1.99467,-0.352 -1.056,0 -1.936,0.41066 -0.88,0.41067 -1.52533,1.17334 -0.616,0.73333 -0.968,1.78933 -0.352,1.056 -0.352,2.31733 0,1.232 0.352,2.288 0.352,1.02667 0.99733,1.78934 0.64534,0.73333 1.496,1.144 0.88,0.41066 1.90667,0.41066 z"
       style="font-style:normal;font-variant:normal;font-weight:normal;font-stretch:normal;font-size:29.33333397px;font-family:ABeeZee;-inkscape-font-specification:ABeeZee;letter-spacing:-0.80000001px;word-spacing:0px;fill:#71a9cd;fill-opacity:1"
       id="path1108" />
    <path
       d="m 165.70812,111.03718 h 2.024 v 4.81067 h 4.224 v 2.288 h -4.224 v 7.36267 q 0,0.85066 0.176,1.43733 0.20533,0.58667 0.528,0.93867 0.32266,0.352 0.76266,0.528 0.46934,0.14666 0.968,0.14666 0.73334,0 1.37867,-0.23466 0.64533,-0.23467 1.232,-0.55734 l 0.73333,2.112 q -0.58666,0.352 -1.584,0.67467 -0.99733,0.352 -2.08266,0.352 -2.2,0 -3.49067,-1.43733 -1.26133,-1.43734 -1.26133,-4.16534 v -7.15733 h -2.64 v -2.288 h 2.69866 z"
       style="font-style:normal;font-variant:normal;font-weight:normal;font-stretch:normal;font-size:29.33333397px;font-family:ABeeZee;-inkscape-font-specification:ABeeZee;letter-spacing:-0.80000001px;word-spacing:0px;fill:#71a9cd;fill-opacity:1"
       id="path1110" />
    <path
       d="m 177.99076,130.54385 h -2.64 v -15.25333 h 2.64 z m -1.32,-17.864 q -0.76266,0 -1.32,-0.528 -0.528,-0.55733 -0.528,-1.32 0,-0.85067 0.49867,-1.34934 0.49867,-0.49866 1.34933,-0.49866 0.76267,0 1.29067,0.55733 0.55733,0.528 0.55733,1.29067 0,0.85067 -0.49866,1.34933 -0.49867,0.49867 -1.34934,0.49867 z"
       style="font-style:normal;font-variant:normal;font-weight:normal;font-stretch:normal;font-size:29.33333397px;font-family:ABeeZee;-inkscape-font-specification:ABeeZee;letter-spacing:-0.80000001px;word-spacing:0px;fill:#71a9cd;fill-opacity:1"
       id="path1112" />
    <path
       d="m 191.62271,118.07718 q -0.85067,-0.41066 -1.584,-0.58666 -0.73333,-0.20534 -1.64267,-0.20534 -1.02666,0 -1.936,0.38134 -0.88,0.38133 -1.52533,1.11466 -0.64533,0.704 -1.02667,1.73067 -0.352,1.02667 -0.352,2.34667 0,1.20266 0.32267,2.22933 0.352,1.02667 0.968,1.81867 0.616,0.76266 1.46667,1.20266 0.85066,0.44 1.90666,0.44 1.11467,0 1.90667,-0.23466 0.792,-0.23467 1.70133,-0.73334 l 0.82134,2.22934 q -0.93867,0.49866 -2.05334,0.792 -1.11466,0.29333 -2.552,0.29333 -1.64266,0 -2.96266,-0.58667 -1.32,-0.58666 -2.25867,-1.64266 -0.93867,-1.056 -1.46667,-2.52267 -0.49866,-1.46667 -0.49866,-3.22667 0,-1.64266 0.49866,-3.08 0.528,-1.46666 1.496,-2.552 0.968,-1.08533 2.31734,-1.70133 1.37866,-0.64533 3.08,-0.64533 1.32,0 2.288,0.23466 0.968,0.23467 1.87733,0.67467 z"
       style="font-style:normal;font-variant:normal;font-weight:normal;font-stretch:normal;font-size:29.33333397px;font-family:ABeeZee;-inkscape-font-specification:ABeeZee;letter-spacing:-0.80000001px;word-spacing:0px;fill:#71a9cd;fill-opacity:1"
       id="path1114" />
    <path
       d="m 194.72399,127.11185 q 0.76267,0.67467 1.90667,1.08533 1.17333,0.41067 2.49333,0.41067 1.64267,0 2.464,-0.528 0.85067,-0.55733 0.85067,-1.408 0,-0.44 -0.176,-0.82133 -0.14667,-0.38134 -0.58667,-0.73334 -0.41067,-0.352 -1.144,-0.67466 -0.73333,-0.352 -1.90667,-0.76267 -2.17066,-0.73333 -3.22666,-1.73067 -1.056,-1.02666 -1.056,-2.816 0,-0.88 0.38133,-1.64266 0.41067,-0.76267 1.144,-1.32 0.76267,-0.58667 1.81867,-0.90934 1.08533,-0.32266 2.464,-0.32266 1.496,0 2.61066,0.32266 1.144,0.29334 2.05334,0.76267 l -0.73334,2.17067 q -0.792,-0.46934 -1.81866,-0.76267 -0.99734,-0.29333 -2.22934,-0.29333 -1.52533,0 -2.31733,0.616 -0.792,0.616 -0.792,1.34933 0,0.352 0.11733,0.64533 0.14667,0.29334 0.49867,0.55734 0.352,0.264 0.93867,0.528 0.58666,0.264 1.46666,0.55733 1.43734,0.49867 2.43467,1.02667 0.99733,0.49866 1.61333,1.11466 0.616,0.616 0.88,1.34934 0.264,0.704 0.264,1.584 0,1.02666 -0.44,1.848 -0.44,0.82133 -1.232,1.408 -0.792,0.55733 -1.936,0.85066 -1.11466,0.32267 -2.49333,0.32267 -1.76,0 -3.13867,-0.44 -1.37866,-0.44 -2.288,-1.144 z"
       style="font-style:normal;font-variant:normal;font-weight:normal;font-stretch:normal;font-size:29.33333397px;font-family:ABeeZee;-inkscape-font-specification:ABeeZee;letter-spacing:-0.80000001px;word-spacing:0px;fill:#71a9cd;fill-opacity:1"
       id="path1116" />
    <path
       d="m 224.39326,111.68252 q -0.616,-0.32267 -1.32,-0.58667 -0.704,-0.264 -1.55467,-0.264 -1.232,0 -1.99467,0.792 -0.73333,0.76267 -0.73333,2.25867 v 1.96533 h 4.51733 v 2.288 h -4.51733 v 12.408 h -2.64 v -12.408 h -2.34667 v -2.288 h 2.34667 v -1.78933 q 0,-1.29067 0.38133,-2.31734 0.38134,-1.02666 1.056,-1.76 0.67467,-0.73333 1.64267,-1.11467 0.968,-0.38133 2.112,-0.38133 1.232,0 2.112,0.29333 0.90933,0.264 1.73067,0.67467 z"
       style="font-style:normal;font-variant:normal;font-weight:normal;font-stretch:normal;font-size:29.33333397px;font-family:ABeeZee;-inkscape-font-specification:ABeeZee;letter-spacing:-0.80000001px;word-spacing:0px;fill:#71a9cd;fill-opacity:1"
       id="path1118" />
    <path
       d="m 236.14788,122.91718 q 0,-1.144 -0.38133,-2.17066 -0.352,-1.02667 -1.02667,-1.78934 -0.64533,-0.76266 -1.55467,-1.20266 -0.88,-0.46934 -1.936,-0.46934 -2.31733,0 -3.608,1.52534 -1.29066,1.52533 -1.29066,4.048 0,1.144 0.352,2.2 0.38133,1.02666 1.02666,1.81866 0.67467,0.76267 1.55467,1.232 0.90933,0.44 1.96533,0.44 1.144,0 2.05334,-0.41066 0.90933,-0.41067 1.52533,-1.144 0.64533,-0.76267 0.968,-1.78934 0.352,-1.02666 0.352,-2.288 z m -12.496,0 q 0,-1.848 0.58667,-3.31466 0.58666,-1.496 1.584,-2.52267 1.02666,-1.02667 2.40533,-1.584 1.408,-0.55733 3.02133,-0.55733 1.584,0 2.96267,0.55733 1.408,0.55733 2.43467,1.584 1.02666,1.02667 1.61333,2.49333 0.58667,1.46667 0.58667,3.28534 0,1.81866 -0.58667,3.31466 -0.55733,1.46667 -1.584,2.52267 -1.02667,1.056 -2.43467,1.64267 -1.37866,0.55733 -2.992,0.55733 -1.64266,0 -3.05066,-0.58667 -1.37867,-0.58666 -2.40534,-1.64266 -0.99733,-1.056 -1.584,-2.52267 -0.55733,-1.46667 -0.55733,-3.22667 z"
       style="font-style:normal;font-variant:normal;font-weight:normal;font-stretch:normal;font-size:29.33333397px;font-family:ABeeZee;-inkscape-font-specification:ABeeZee;letter-spacing:-0.80000001px;word-spacing:0px;fill:#71a9cd;fill-opacity:1"
       id="path1120" />
    <path
       d="m 249.83853,117.84252 q -0.55733,-0.23467 -1.32,-0.23467 -0.82133,0 -1.61333,0.352 -0.76267,0.352 -1.37867,1.056 -0.58667,0.704 -0.968,1.81867 -0.352,1.08533 -0.352,2.58133 v 7.128 h -2.64 v -15.25333 h 2.552 v 3.31466 q 0.264,-0.704 0.704,-1.37866 0.44,-0.67467 1.02667,-1.17334 0.616,-0.49866 1.408,-0.792 0.792,-0.32266 1.76,-0.32266 0.44,0 0.85066,0.0587 0.44,0.0293 0.76267,0.11734 z"
       style="font-style:normal;font-variant:normal;font-weight:normal;font-stretch:normal;font-size:29.33333397px;font-family:ABeeZee;-inkscape-font-specification:ABeeZee;letter-spacing:-0.80000001px;word-spacing:0px;fill:#71a9cd;fill-opacity:1"
       id="path1122" />
    <path
       d="m 272.96646,130.54385 h -12.20267 v -20.53334 h 2.78667 v 18.04001 h 9.416 z"
       style="font-style:normal;font-variant:normal;font-weight:normal;font-stretch:normal;font-size:29.33333397px;font-family:ABeeZee;-inkscape-font-specification:ABeeZee;letter-spacing:-0.80000001px;word-spacing:0px;fill:#71a9cd;fill-opacity:1"
       id="path1124" />
    <path
       d="m 277.29978,130.54385 h -2.64 v -15.25333 h 2.64 z m -1.32,-17.864 q -0.76267,0 -1.32,-0.528 -0.528,-0.55733 -0.528,-1.32 0,-0.85067 0.49866,-1.34934 0.49867,-0.49866 1.34934,-0.49866 0.76266,0 1.29066,0.55733 0.55734,0.528 0.55734,1.29067 0,0.85067 -0.49867,1.34933 -0.49867,0.49867 -1.34933,0.49867 z"
       style="font-style:normal;font-variant:normal;font-weight:normal;font-stretch:normal;font-size:29.33333397px;font-family:ABeeZee;-inkscape-font-specification:ABeeZee;letter-spacing:-0.80000001px;word-spacing:0px;fill:#71a9cd;fill-opacity:1"
       id="path1126" />
    <path
       d="m 289.72906,111.68252 q -0.616,-0.32267 -1.32,-0.58667 -0.704,-0.264 -1.55467,-0.264 -1.232,0 -1.99467,0.792 -0.73333,0.76267 -0.73333,2.25867 v 1.96533 h 4.51733 v 2.288 h -4.51733 v 12.408 h -2.64 v -12.408 h -2.34667 v -2.288 h 2.34667 v -1.78933 q 0,-1.29067 0.38133,-2.31734 0.38134,-1.02666 1.056,-1.76 0.67467,-0.73333 1.64267,-1.11467 0.968,-0.38133 2.112,-0.38133 1.232,0 2.112,0.29333 0.90933,0.264 1.73067,0.67467 z"
       style="font-style:normal;font-variant:normal;font-weight:normal;font-stretch:normal;font-size:29.33333397px;font-family:ABeeZee;-inkscape-font-specification:ABeeZee;letter-spacing:-0.80000001px;word-spacing:0px;fill:#71a9cd;fill-opacity:1"
       id="path1128" />
    <path
       d="m 291.83301,124.00252 q 0.264,2.14133 1.496,3.344 1.232,1.20266 3.256,1.20266 1.32,0 2.376,-0.264 1.056,-0.29333 2.024,-0.73333 l 0.616,2.25867 q -1.056,0.49866 -2.376,0.792 -1.32,0.29333 -2.96266,0.29333 -1.64267,0 -2.96267,-0.528 -1.32,-0.55733 -2.25867,-1.55467 -0.90933,-1.02666 -1.408,-2.49333 -0.49866,-1.496 -0.49866,-3.40267 0,-1.70133 0.49866,-3.168 0.49867,-1.46666 1.408,-2.52266 0.90934,-1.08534 2.17067,-1.672 1.26133,-0.616 2.816,-0.616 1.64267,0 2.87467,0.55733 1.232,0.55733 2.05333,1.52533 0.82133,0.968 1.232,2.25867 0.41067,1.29067 0.41067,2.728 0,1.02667 -0.088,1.99467 z m 4.136,-6.776 q -1.73066,0 -2.84533,1.17333 -1.08533,1.17333 -1.32,3.46133 h 8.36 q 0,-2.22933 -1.11467,-3.432 -1.11466,-1.20266 -3.08,-1.20266 z"
       style="font-style:normal;font-variant:normal;font-weight:normal;font-stretch:normal;font-size:29.33333397px;font-family:ABeeZee;-inkscape-font-specification:ABeeZee;letter-spacing:-0.80000001px;word-spacing:0px;fill:#71a9cd;fill-opacity:1"
       id="path1130" />
    <path
       d="m 313.25962,126.46652 q 1.056,0.88 2.376,1.43733 1.32,0.55733 3.08,0.55733 2.112,0 3.344,-0.88 1.232,-0.88 1.232,-2.376 0,-0.616 -0.176,-1.144 -0.176,-0.528 -0.704,-0.99733 -0.49867,-0.49867 -1.43733,-0.968 -0.90934,-0.49867 -2.376,-1.056 -1.584,-0.616 -2.69867,-1.20267 -1.08533,-0.616 -1.76,-1.32 -0.67467,-0.73333 -0.968,-1.584 -0.29333,-0.88 -0.29333,-1.99466 0,-1.08534 0.44,-2.05334 0.46933,-0.968 1.34933,-1.672 0.90933,-0.73333 2.2,-1.144 1.32,-0.41067 2.992,-0.41067 1.81867,0 3.256,0.38134 1.43733,0.352 2.84533,1.02667 l -1.02666,2.376 q -0.99734,-0.58667 -2.34667,-0.968 -1.32,-0.41067 -2.78667,-0.41067 -1.936,0 -3.05066,0.76267 -1.11467,0.73333 -1.11467,1.96533 0,0.58667 0.14667,1.056 0.176,0.44 0.64533,0.88 0.49867,0.41067 1.34933,0.85067 0.88,0.44 2.31734,0.968 1.70133,0.64533 2.87466,1.32 1.17334,0.67466 1.87734,1.43733 0.704,0.76267 0.99733,1.64267 0.32267,0.88 0.32267,1.936 0,1.43733 -0.55734,2.552 -0.55733,1.11466 -1.55466,1.90666 -0.968,0.76267 -2.34667,1.17334 -1.37867,0.38133 -2.992,0.38133 -2.14133,0 -3.90133,-0.55733 -1.76,-0.58667 -2.96267,-1.52534 z"
       style="font-style:normal;font-variant:normal;font-weight:normal;font-stretch:normal;font-size:29.33333397px;font-family:ABeeZee;-inkscape-font-specification:ABeeZee;letter-spacing:-0.80000001px;word-spacing:0px;fill:#71a9cd;fill-opacity:1"
       id="path1132" />
    <path
       d="m 338.91825,118.07718 q -0.85067,-0.41066 -1.584,-0.58666 -0.73333,-0.20534 -1.64267,-0.20534 -1.02666,0 -1.936,0.38134 -0.88,0.38133 -1.52533,1.11466 -0.64533,0.704 -1.02667,1.73067 -0.352,1.02667 -0.352,2.34667 0,1.20266 0.32267,2.22933 0.352,1.02667 0.968,1.81867 0.616,0.76266 1.46667,1.20266 0.85066,0.44 1.90666,0.44 1.11467,0 1.90667,-0.23466 0.792,-0.23467 1.70133,-0.73334 l 0.82134,2.22934 q -0.93867,0.49866 -2.05334,0.792 -1.11466,0.29333 -2.552,0.29333 -1.64266,0 -2.96266,-0.58667 -1.32,-0.58666 -2.25867,-1.64266 -0.93867,-1.056 -1.46667,-2.52267 -0.49866,-1.46667 -0.49866,-3.22667 0,-1.64266 0.49866,-3.08 0.528,-1.46666 1.496,-2.552 0.968,-1.08533 2.31734,-1.70133 1.37866,-0.64533 3.08,-0.64533 1.32,0 2.288,0.23466 0.968,0.23467 1.87733,0.67467 z"
       style="font-style:normal;font-variant:normal;font-weight:normal;font-stretch:normal;font-size:29.33333397px;font-family:ABeeZee;-inkscape-font-specification:ABeeZee;letter-spacing:-0.80000001px;word-spacing:0px;fill:#71a9cd;fill-opacity:1"
       id="path1134" />
    <path
       d="m 344.86487,130.54385 h -2.64 v -15.25333 h 2.64 z m -1.32,-17.864 q -0.76267,0 -1.32,-0.528 -0.528,-0.55733 -0.528,-1.32 0,-0.85067 0.49867,-1.34934 0.49866,-0.49866 1.34933,-0.49866 0.76267,0 1.29067,0.55733 0.55733,0.528 0.55733,1.29067 0,0.85067 -0.49867,1.34933 -0.49866,0.49867 -1.34933,0.49867 z"
       style="font-style:normal;font-variant:normal;font-weight:normal;font-stretch:normal;font-size:29.33333397px;font-family:ABeeZee;-inkscape-font-specification:ABeeZee;letter-spacing:-0.80000001px;word-spacing:0px;fill:#71a9cd;fill-opacity:1"
       id="path1136" />
    <path
       d="m 350.43014,124.00252 q 0.264,2.14133 1.496,3.344 1.232,1.20266 3.256,1.20266 1.32,0 2.376,-0.264 1.056,-0.29333 2.024,-0.73333 l 0.616,2.25867 q -1.056,0.49866 -2.376,0.792 -1.32,0.29333 -2.96267,0.29333 -1.64267,0 -2.96267,-0.528 -1.32,-0.55733 -2.25866,-1.55467 -0.90934,-1.02666 -1.408,-2.49333 -0.49867,-1.496 -0.49867,-3.40267 0,-1.70133 0.49867,-3.168 0.49866,-1.46666 1.408,-2.52266 0.90933,-1.08534 2.17066,-1.672 1.26134,-0.616 2.816,-0.616 1.64267,0 2.87467,0.55733 1.232,0.55733 2.05333,1.52533 0.82134,0.968 1.232,2.25867 0.41067,1.29067 0.41067,2.728 0,1.02667 -0.088,1.99467 z m 4.136,-6.776 q -1.73067,0 -2.84534,1.17333 -1.08533,1.17333 -1.32,3.46133 h 8.36 q 0,-2.22933 -1.11466,-3.432 -1.11467,-1.20266 -3.08,-1.20266 z"
       style="font-style:normal;font-variant:normal;font-weight:normal;font-stretch:normal;font-size:29.33333397px;font-family:ABeeZee;-inkscape-font-specification:ABeeZee;letter-spacing:-0.80000001px;word-spacing:0px;fill:#71a9cd;fill-opacity:1"
       id="path1138" />
    <path
       d="m 366.46745,117.84252 q 0.82134,-1.232 2.08267,-2.05334 1.29067,-0.85066 3.05067,-0.85066 2.58133,0 3.84266,1.55466 1.29067,1.55467 1.29067,4.10667 v 9.944 h -2.64 v -9.65067 q 0,-1.672 -0.76267,-2.64 -0.76266,-0.99733 -2.17066,-0.99733 -0.67467,0 -1.32,0.264 -0.64534,0.23467 -1.26134,0.67467 -0.58666,0.44 -1.11466,1.02666 -0.49867,0.58667 -0.90934,1.232 v 10.09067 h -2.64 v -15.25333 h 2.552 z"
       style="font-style:normal;font-variant:normal;font-weight:normal;font-stretch:normal;font-size:29.33333397px;font-family:ABeeZee;-inkscape-font-specification:ABeeZee;letter-spacing:-0.80000001px;word-spacing:0px;fill:#71a9cd;fill-opacity:1"
       id="path1140" />
    <path
       d="m 390.21943,118.07718 q -0.85067,-0.41066 -1.584,-0.58666 -0.73334,-0.20534 -1.64267,-0.20534 -1.02667,0 -1.936,0.38134 -0.88,0.38133 -1.52533,1.11466 -0.64534,0.704 -1.02667,1.73067 -0.352,1.02667 -0.352,2.34667 0,1.20266 0.32267,2.22933 0.352,1.02667 0.968,1.81867 0.616,0.76266 1.46666,1.20266 0.85067,0.44 1.90667,0.44 1.11467,0 1.90667,-0.23466 0.792,-0.23467 1.70133,-0.73334 l 0.82133,2.22934 q -0.93866,0.49866 -2.05333,0.792 -1.11467,0.29333 -2.552,0.29333 -1.64267,0 -2.96267,-0.58667 -1.32,-0.58666 -2.25866,-1.64266 -0.93867,-1.056 -1.46667,-2.52267 -0.49867,-1.46667 -0.49867,-3.22667 0,-1.64266 0.49867,-3.08 0.528,-1.46666 1.496,-2.552 0.968,-1.08533 2.31733,-1.70133 1.37867,-0.64533 3.08,-0.64533 1.32,0 2.288,0.23466 0.968,0.23467 1.87734,0.67467 z"
       style="font-style:normal;font-variant:normal;font-weight:normal;font-stretch:normal;font-size:29.33333397px;font-family:ABeeZee;-inkscape-font-specification:ABeeZee;letter-spacing:-0.80000001px;word-spacing:0px;fill:#71a9cd;fill-opacity:1"
       id="path1142" />
    <path
       d="m 394.90468,124.00252 q 0.264,2.14133 1.496,3.344 1.232,1.20266 3.256,1.20266 1.32,0 2.376,-0.264 1.056,-0.29333 2.024,-0.73333 l 0.616,2.25867 q -1.056,0.49866 -2.376,0.792 -1.32,0.29333 -2.96266,0.29333 -1.64267,0 -2.96267,-0.528 -1.32,-0.55733 -2.25867,-1.55467 -0.90933,-1.02666 -1.408,-2.49333 -0.49866,-1.496 -0.49866,-3.40267 0,-1.70133 0.49866,-3.168 0.49867,-1.46666 1.408,-2.52266 0.90934,-1.08534 2.17067,-1.672 1.26133,-0.616 2.816,-0.616 1.64267,0 2.87467,0.55733 1.232,0.55733 2.05333,1.52533 0.82133,0.968 1.232,2.25867 0.41067,1.29067 0.41067,2.728 0,1.02667 -0.088,1.99467 z m 4.136,-6.776 q -1.73066,0 -2.84533,1.17333 -1.08533,1.17333 -1.32,3.46133 h 8.36 q 0,-2.22933 -1.11467,-3.432 -1.11466,-1.20266 -3.08,-1.20266 z"
       style="font-style:normal;font-variant:normal;font-weight:normal;font-stretch:normal;font-size:29.33333397px;font-family:ABeeZee;-inkscape-font-specification:ABeeZee;letter-spacing:-0.80000001px;word-spacing:0px;fill:#71a9cd;fill-opacity:1"
       id="path1144" />
    <path
       d="m 408.18464,127.11185 q 0.76266,0.67467 1.90666,1.08533 1.17334,0.41067 2.49334,0.41067 1.64266,0 2.464,-0.528 0.85066,-0.55733 0.85066,-1.408 0,-0.44 -0.176,-0.82133 -0.14666,-0.38134 -0.58666,-0.73334 -0.41067,-0.352 -1.144,-0.67466 -0.73334,-0.352 -1.90667,-0.76267 -2.17067,-0.73333 -3.22667,-1.73067 -1.056,-1.02666 -1.056,-2.816 0,-0.88 0.38134,-1.64266 0.41066,-0.76267 1.144,-1.32 0.76266,-0.58667 1.81866,-0.90934 1.08534,-0.32266 2.464,-0.32266 1.496,0 2.61067,0.32266 1.144,0.29334 2.05333,0.76267 l -0.73333,2.17067 q -0.792,-0.46934 -1.81867,-0.76267 -0.99733,-0.29333 -2.22933,-0.29333 -1.52533,0 -2.31733,0.616 -0.792,0.616 -0.792,1.34933 0,0.352 0.11733,0.64533 0.14667,0.29334 0.49867,0.55734 0.352,0.264 0.93866,0.528 0.58667,0.264 1.46667,0.55733 1.43733,0.49867 2.43467,1.02667 0.99733,0.49866 1.61333,1.11466 0.616,0.616 0.88,1.34934 0.264,0.704 0.264,1.584 0,1.02666 -0.44,1.848 -0.44,0.82133 -1.232,1.408 -0.792,0.55733 -1.936,0.85066 -1.11467,0.32267 -2.49333,0.32267 -1.76,0 -3.13867,-0.44 -1.37867,-0.44 -2.288,-1.144 z"
       style="font-style:normal;font-variant:normal;font-weight:normal;font-stretch:normal;font-size:29.33333397px;font-family:ABeeZee;-inkscape-font-specification:ABeeZee;letter-spacing:-0.80000001px;word-spacing:0px;fill:#71a9cd;fill-opacity:1"
       id="path1146" />
  </g>
  <g
     aria-label="LIPIDOMICS"
     transform="matrix(1,0,-0.05458071,1,-53.362534,-108.75386)"
     style="font-style:normal;font-weight:normal;font-size:40px;line-height:1.25;font-family:sans-serif;letter-spacing:0px;word-spacing:0px;fill:#007cc2;fill-opacity:1;stroke:#007cc2;stroke-opacity:1"
     id="flowRoot817-35">
    <path
       d="M 73.217667,130.54385 H 61.015 v -20.53334 h 2.786667 v 18.04001 h 9.416 z"
       style="font-style:normal;font-variant:normal;font-weight:normal;font-stretch:normal;font-size:29.33333397px;font-family:ABeeZee;-inkscape-font-specification:ABeeZee;letter-spacing:3.79999995px;word-spacing:0px;fill:#007cc2;fill-opacity:1;stroke:#007cc2;stroke-opacity:1"
       id="path992"
       inkscape:connector-curvature="0" />
    <path
       d="m 79.804324,130.54385 v -20.53334 h 2.786667 v 20.53334 z"
       style="font-style:normal;font-variant:normal;font-weight:normal;font-stretch:normal;font-size:29.33333397px;font-family:ABeeZee;-inkscape-font-specification:ABeeZee;letter-spacing:3.79999995px;word-spacing:0px;fill:#007cc2;fill-opacity:1;stroke:#007cc2;stroke-opacity:1"
       id="path994"
       inkscape:connector-curvature="0" />
    <path
       d="m 91.670981,110.06918 q 1.232,-0.14667 2.64,-0.20533 1.437334,-0.088 3.021334,-0.088 1.906666,0 3.402665,0.46933 1.496,0.46934 2.52267,1.29067 1.02666,0.82133 1.55466,1.99467 0.528,1.144 0.528,2.49333 0,1.64267 -0.64533,2.93333 -0.616,1.26134 -1.76,2.14134 -1.11467,0.88 -2.69867,1.34933 -1.583995,0.44 -3.490662,0.44 -1.232,0 -2.288,-0.088 v 7.744 h -2.786667 z m 5.426667,10.50134 q 2.64,0 4.048002,-1.144 1.43733,-1.17334 1.43733,-3.168 0,-1.90667 -1.37867,-3.02134 -1.349329,-1.11466 -3.930662,-1.11466 -0.792,0 -1.496,0.0293 -0.704,0.0293 -1.32,0.088 v 8.184 q 0.469333,0.0587 1.114667,0.11733 0.674666,0.0293 1.525333,0.0293 z"
       style="font-style:normal;font-variant:normal;font-weight:normal;font-stretch:normal;font-size:29.33333397px;font-family:ABeeZee;-inkscape-font-specification:ABeeZee;letter-spacing:3.79999995px;word-spacing:0px;fill:#007cc2;fill-opacity:1;stroke:#007cc2;stroke-opacity:1"
       id="path996"
       inkscape:connector-curvature="0" />
    <path
       d="m 112.51363,130.54385 v -20.53334 h 2.78667 v 20.53334 z"
       style="font-style:normal;font-variant:normal;font-weight:normal;font-stretch:normal;font-size:29.33333397px;font-family:ABeeZee;-inkscape-font-specification:ABeeZee;letter-spacing:3.79999995px;word-spacing:0px;fill:#007cc2;fill-opacity:1;stroke:#007cc2;stroke-opacity:1"
       id="path998"
       inkscape:connector-curvature="0" />
    <path
       d="m 124.38028,110.06918 q 1.37867,-0.14667 2.69867,-0.20533 1.32,-0.088 3.02133,-0.088 2.64,0 4.54667,0.82133 1.90667,0.82134 3.168,2.25867 1.26133,1.43733 1.848,3.344 0.616,1.90667 0.616,4.048 0,2.14133 -0.616,4.07733 -0.616,1.90667 -1.90667,3.344 -1.26133,1.43734 -3.256,2.288 -1.96533,0.82134 -4.72266,0.82134 -1.672,0 -2.93334,-0.088 -1.232,-0.0587 -2.464,-0.20534 z m 5.632,2.112 q -0.85066,0 -1.55466,0.0587 -0.704,0.0293 -1.29067,0.088 v 15.86933 q 0.616,0.088 1.29067,0.11734 0.67466,0.0293 1.408,0.0293 1.96533,0 3.40266,-0.58667 1.43734,-0.616 2.34667,-1.672 0.93867,-1.08533 1.37867,-2.552 0.44,-1.496 0.44,-3.28533 0,-1.584 -0.44,-3.02133 -0.44,-1.46667 -1.34934,-2.58134 -0.90933,-1.144 -2.31733,-1.78933 -1.408,-0.67467 -3.31467,-0.67467 z"
       style="font-style:normal;font-variant:normal;font-weight:normal;font-stretch:normal;font-size:29.33333397px;font-family:ABeeZee;-inkscape-font-specification:ABeeZee;letter-spacing:3.79999995px;word-spacing:0px;fill:#007cc2;fill-opacity:1;stroke:#007cc2;stroke-opacity:1"
       id="path1000"
       inkscape:connector-curvature="0" />
    <path
       d="m 147.01226,120.24785 q 0,-2.25867 0.64533,-4.19467 0.67467,-1.936 1.90667,-3.344 1.26133,-1.43733 3.05067,-2.22933 1.78933,-0.82134 4.07733,-0.82134 2.25867,0 4.048,0.85067 1.81867,0.82134 3.05067,2.25867 1.26133,1.43733 1.936,3.37333 0.67466,1.90667 0.67466,4.10667 0,2.2 -0.67466,4.136 -0.64534,1.936 -1.90667,3.40267 -1.26133,1.43733 -3.05067,2.288 -1.78933,0.82133 -4.07733,0.82133 -2.288,0 -4.07733,-0.82133 -1.78934,-0.85067 -3.05067,-2.288 -1.232,-1.46667 -1.90667,-3.40267 -0.64533,-1.936 -0.64533,-4.136 z m 2.84533,0 q 0,1.584 0.44,3.08 0.46934,1.496 1.34934,2.64 0.88,1.144 2.14133,1.848 1.29067,0.67467 2.904,0.67467 1.70133,0 2.96267,-0.616 1.29066,-0.64534 2.14133,-1.73067 0.88,-1.11467 1.32,-2.61067 0.44,-1.52533 0.44,-3.28533 0,-1.584 -0.46933,-3.05067 -0.46934,-1.46666 -1.34934,-2.61066 -0.88,-1.144 -2.17066,-1.81867 -1.26134,-0.704 -2.87467,-0.704 -1.61333,0 -2.904,0.64533 -1.26133,0.616 -2.14133,1.73067 -0.88,1.08533 -1.34934,2.58133 -0.44,1.496 -0.44,3.22667 z"
       style="font-style:normal;font-variant:normal;font-weight:normal;font-stretch:normal;font-size:29.33333397px;font-family:ABeeZee;-inkscape-font-specification:ABeeZee;letter-spacing:3.79999995px;word-spacing:0px;fill:#007cc2;fill-opacity:1;stroke:#007cc2;stroke-opacity:1"
       id="path1002"
       inkscape:connector-curvature="0" />
    <path
       d="m 190.70558,113.55985 -5.48533,12.34933 h -2.75733 l -5.51467,-12.34933 v 16.984 h -2.64 v -20.53334 h 3.90133 l 5.69067,12.99467 5.60267,-12.99467 h 3.98933 v 20.53334 h -2.78667 z"
       style="font-style:normal;font-variant:normal;font-weight:normal;font-stretch:normal;font-size:29.33333397px;font-family:ABeeZee;-inkscape-font-specification:ABeeZee;letter-spacing:3.79999995px;word-spacing:0px;fill:#007cc2;fill-opacity:1;stroke:#007cc2;stroke-opacity:1"
       id="path1004"
       inkscape:connector-curvature="0" />
    <path
       d="m 202.57224,130.54385 v -20.53334 h 2.78666 v 20.53334 z"
       style="font-style:normal;font-variant:normal;font-weight:normal;font-stretch:normal;font-size:29.33333397px;font-family:ABeeZee;-inkscape-font-specification:ABeeZee;letter-spacing:3.79999995px;word-spacing:0px;fill:#007cc2;fill-opacity:1;stroke:#007cc2;stroke-opacity:1"
       id="path1006"
       inkscape:connector-curvature="0" />
    <path
       d="m 216.1109,120.24785 q 0,1.848 0.46934,3.37333 0.49866,1.496 1.34933,2.58134 0.88,1.08533 2.08267,1.672 1.20266,0.58666 2.64,0.58666 1.43733,0 2.49333,-0.32266 1.056,-0.352 2.05333,-0.93867 l 0.85067,2.31733 q -1.08533,0.58667 -2.49333,0.99734 -1.37867,0.38133 -3.22667,0.38133 -2.024,0 -3.696,-0.73333 -1.64267,-0.73334 -2.84533,-2.08267 -1.20267,-1.37867 -1.87734,-3.31467 -0.64533,-1.96533 -0.64533,-4.4 0,-2.34666 0.64533,-4.312 0.67467,-1.96533 1.90667,-3.37333 1.232,-1.43733 2.96267,-2.22933 1.76,-0.79201 3.90133,-0.79201 1.496,0 2.66933,0.29334 1.20267,0.264 2.25867,0.76267 l -0.85067,2.34666 q -0.90933,-0.44 -1.87733,-0.704 -0.93867,-0.264 -2.22933,-0.264 -1.408,0 -2.61067,0.55734 -1.20267,0.528 -2.08267,1.584 -0.88,1.056 -1.37866,2.58133 -0.46934,1.496 -0.46934,3.432 z"
       style="font-style:normal;font-variant:normal;font-weight:normal;font-stretch:normal;font-size:29.33333397px;font-family:ABeeZee;-inkscape-font-specification:ABeeZee;letter-spacing:3.79999995px;word-spacing:0px;fill:#007cc2;fill-opacity:1;stroke:#007cc2;stroke-opacity:1"
       id="path1008"
       inkscape:connector-curvature="0" />
    <path
       d="m 235.31089,126.46652 q 1.056,0.88 2.376,1.43733 1.32,0.55733 3.08,0.55733 2.112,0 3.344,-0.88 1.232,-0.88 1.232,-2.376 0,-0.616 -0.176,-1.144 -0.176,-0.528 -0.704,-0.99733 -0.49867,-0.49867 -1.43733,-0.968 -0.90934,-0.49867 -2.376,-1.056 -1.58401,-0.616 -2.69867,-1.20267 -1.08534,-0.616 -1.76,-1.32 -0.67467,-0.73333 -0.968,-1.584 -0.29334,-0.88 -0.29334,-1.99466 0,-1.08534 0.44,-2.05334 0.46934,-0.968 1.34934,-1.672 0.90933,-0.73333 2.2,-1.144 1.32,-0.41067 2.992,-0.41067 1.81867,0 3.256,0.38134 1.43733,0.352 2.84533,1.02667 l -1.02666,2.376 q -0.99734,-0.58667 -2.34667,-0.968 -1.32,-0.41067 -2.78667,-0.41067 -1.936,0 -3.05067,0.76267 -1.11466,0.73333 -1.11466,1.96533 0,0.58667 0.14666,1.056 0.176,0.44 0.64534,0.88 0.49866,0.41067 1.34933,0.85067 0.88,0.44 2.31734,0.968 1.70133,0.64533 2.87466,1.32 1.17334,0.67466 1.87734,1.43733 0.704,0.76267 0.99733,1.64267 0.32267,0.88 0.32267,1.936 0,1.43733 -0.55734,2.552 -0.55733,1.11466 -1.55466,1.90666 -0.968,0.76267 -2.34667,1.17334 -1.37867,0.38133 -2.992,0.38133 -2.14134,0 -3.90134,-0.55733 -1.76,-0.58667 -2.96266,-1.52534 z"
       style="font-style:normal;font-variant:normal;font-weight:normal;font-stretch:normal;font-size:29.33333397px;font-family:ABeeZee;-inkscape-font-specification:ABeeZee;letter-spacing:3.79999995px;word-spacing:0px;fill:#007cc2;fill-opacity:1;stroke:#007cc2;stroke-opacity:1"
       id="path1010"
       inkscape:connector-curvature="0" />
  </g>
</svg>
