<?xml version="1.0" encoding="UTF-8" standalone="no"?>
<!-- Created with Inkscape (http://www.inkscape.org/) -->

<svg
   xmlns:dc="http://purl.org/dc/elements/1.1/"
   xmlns:cc="http://creativecommons.org/ns#"
   xmlns:rdf="http://www.w3.org/1999/02/22-rdf-syntax-ns#"
   xmlns:svg="http://www.w3.org/2000/svg"
   xmlns="http://www.w3.org/2000/svg"
   xmlns:sodipodi="http://sodipodi.sourceforge.net/DTD/sodipodi-0.dtd"
   xmlns:inkscape="http://www.inkscape.org/namespaces/inkscape"
   width="132.58099mm"
   height="24.482mm"
   viewBox="0 0 132.58099 24.482"
   version="1.1"
   id="svg907"
   inkscape:version="0.92.5 (2060ec1f9f, 2020-04-08)"
   sodipodi:docname="LipidSpace-banner.svg">
  <defs
     id="defs901" />
  <sodipodi:namedview
     id="base"
     pagecolor="#ffffff"
     bordercolor="#666666"
     borderopacity="1.0"
     inkscape:pageopacity="0.0"
     inkscape:pageshadow="2"
     inkscape:zoom="1.979899"
     inkscape:cx="218.18638"
     inkscape:cy="127.15161"
     inkscape:document-units="mm"
     inkscape:current-layer="layer1"
     showgrid="false"
     inkscape:window-width="1920"
     inkscape:window-height="1017"
     inkscape:window-x="1"
     inkscape:window-y="0"
     inkscape:window-maximized="1" />
  <metadata
     id="metadata904">
    <rdf:RDF>
      <cc:Work
         rdf:about="">
        <dc:format>image/svg+xml</dc:format>
        <dc:type
           rdf:resource="http://purl.org/dc/dcmitype/StillImage" />
        <dc:title></dc:title>
      </cc:Work>
    </rdf:RDF>
  </metadata>
  <g
     inkscape:label="Layer 1"
     inkscape:groupmode="layer"
     id="layer1"
     transform="translate(0,-272.518)">
    <g
       id="g1524"
       transform="matrix(1,0,0,0.99999058,-0.91455584,272.06797)"
       style="fill:#ffffff;fill-opacity:1">
      <path
         d="M 0.91455584,20.033339 V 1.6778683 H 4.7344758 V 17.428849 h 9.3265602 v 2.60449 z"
         style="font-style:normal;font-variant:normal;font-weight:600;font-stretch:normal;font-size:25.39999962px;line-height:1.25;font-family:Go;-inkscape-font-specification:'Go Semi-Bold';letter-spacing:0px;word-spacing:0px;fill:#ffffff;fill-opacity:1;stroke:none;stroke-width:0.26458332"
         id="path829"
         inkscape:connector-curvature="0" />
      <path
         d="M 16.119826,20.033339 V 6.4155683 h 3.67109 V 20.033339 Z M 15.995806,3.9350983 V 0.45003833 h 3.91914 V 3.9350983 Z"
         style="font-style:normal;font-variant:normal;font-weight:600;font-stretch:normal;font-size:25.39999962px;line-height:1.25;font-family:Go;-inkscape-font-specification:'Go Semi-Bold';letter-spacing:0px;word-spacing:0px;fill:#ffffff;fill-opacity:1;stroke:none;stroke-width:0.26458332"
         id="path831"
         inkscape:connector-curvature="0" />
      <path
         d="m 27.133106,24.932269 h -3.67109 V 6.4155683 h 3.67109 v 2.2572203 q 1.94717,-2.5672803 4.27881,-2.5672803 2.1332,0 3.43545,1.8603503 1.31465,1.84795 1.31465,4.8865204 0,3.52227 -1.69913,5.50664 -1.68671,1.98438 -4.70048,1.98438 -1.00459,0 -2.6293,-0.31006 z m 0,-7.08174 q 1.38906,0.23564 2.07119,0.23564 3.05098,0 3.05098,-4.72529 0,-4.3780304 -2.22002,-4.3780304 -1.48828,0 -2.90215,2.1704104 z"
         style="font-style:normal;font-variant:normal;font-weight:600;font-stretch:normal;font-size:25.39999962px;line-height:1.25;font-family:Go;-inkscape-font-specification:'Go Semi-Bold';letter-spacing:0px;word-spacing:0px;fill:#ffffff;fill-opacity:1;stroke:none;stroke-width:0.26458332"
         id="path833"
         inkscape:connector-curvature="0" />
      <path
         d="M 38.977346,20.033339 V 6.4155683 h 3.67109 V 20.033339 Z M 38.853326,3.9350983 V 0.45003833 h 3.91914 V 3.9350983 Z"
         style="font-style:normal;font-variant:normal;font-weight:600;font-stretch:normal;font-size:25.39999962px;line-height:1.25;font-family:Go;-inkscape-font-specification:'Go Semi-Bold';letter-spacing:0px;word-spacing:0px;fill:#ffffff;fill-opacity:1;stroke:none;stroke-width:0.26458332"
         id="path835"
         inkscape:connector-curvature="0" />
      <path
         d="m 54.492676,17.776109 q -1.93477,2.56729 -4.26641,2.56729 -2.1332,0 -3.44785,-1.84795 -1.30224,-1.86035 -1.30224,-4.89893 0,-3.52226 1.68671,-5.5066404 1.69913,-1.9843703 4.71289,-1.9843703 1.0046,0 2.6169,0.31006 V 0.45003833 h 3.67109 V 20.033339 h -3.67109 z m 0,-9.1777304 q -1.37666,-0.23565 -2.05879,-0.23565 -3.05098,0 -3.05098,4.7253004 0,4.37802 2.22002,4.37802 1.48828,0 2.88975,-2.17041 z"
         style="font-style:normal;font-variant:normal;font-weight:600;font-stretch:normal;font-size:25.39999962px;line-height:1.25;font-family:Go;-inkscape-font-specification:'Go Semi-Bold';letter-spacing:0px;word-spacing:0px;fill:#ffffff;fill-opacity:1;stroke:none;stroke-width:0.26458332"
         id="path837"
         inkscape:connector-curvature="0" />
      <path
         d="m 61.264356,19.872109 v -3.12539 q 3.52227,1.22783 6.48643,1.22783 4.21679,0 4.21679,-2.44326 0,-1.5875 -1.5999,-2.26963 l -1.69912,-0.64492 -2.02158,-0.76895 q -3.23701,-1.22783 -4.32842,-2.3440404 -1.09141,-1.11621 -1.09141,-3.1750003 0,-5.10977 7.49102,-5.10977 3.1502,0 5.99033,0.63252 v 2.90215 q -2.95176,-1.01699 -5.71748,-1.01699 -2.24482,0 -3.11299,0.47129 -0.86816,0.47129 -0.86816,1.68672 0,0.76894 0.42168,1.20303 0.42168,0.43408 1.62471,0.8805603 l 1.41386,0.5457 2.1084,0.78135 q 3.06338,1.1410204 4.2292,2.3564504 1.17822,1.21543 1.17822,3.27422 0,2.87734 -2.1456,4.2292 -2.1332,1.33945 -6.73447,1.33945 -1.72393,0 -3.88194,-0.33486 z"
         style="font-style:normal;font-variant:normal;font-weight:600;font-stretch:normal;font-size:25.39999962px;line-height:1.25;font-family:Go;-inkscape-font-specification:'Go Semi-Bold';letter-spacing:0px;word-spacing:0px;fill:#ffffff;fill-opacity:1;stroke:none;stroke-width:0.26458332"
         id="path839"
         inkscape:connector-curvature="0" />
      <path
         d="m 82.447566,24.932269 h -3.6711 V 6.4155683 h 3.6711 v 2.2572203 q 1.94717,-2.5672803 4.27881,-2.5672803 2.1332,0 3.43545,1.8603503 1.31464,1.84795 1.31464,4.8865204 0,3.52227 -1.69912,5.50664 -1.68672,1.98438 -4.70049,1.98438 -1.00459,0 -2.62929,-0.31006 z m 0,-7.08174 q 1.38906,0.23564 2.07119,0.23564 3.05098,0 3.05098,-4.72529 0,-4.3780304 -2.22002,-4.3780304 -1.48828,0 -2.90215,2.1704104 z"
         style="font-style:normal;font-variant:normal;font-weight:600;font-stretch:normal;font-size:25.39999962px;line-height:1.25;font-family:Go;-inkscape-font-specification:'Go Semi-Bold';letter-spacing:0px;word-spacing:0px;fill:#ffffff;fill-opacity:1;stroke:none;stroke-width:0.26458332"
         id="path841"
         inkscape:connector-curvature="0" />
      <path
         d="m 105.80118,17.937339 0.0868,2.05879 q -1.16582,0.34727 -2.04638,0.34727 -2.26963,0 -2.91455,-1.77354 h -0.16123 q -1.327059,1.77354 -3.423049,1.77354 -1.81074,0 -2.926955,-1.09141 -1.10381,-1.10381 -1.10381,-2.88974 0,-4.63848 6.474025,-4.63848 h 0.979789 v -1.24024 q 0,-2.1208004 -2.133209,-2.1208004 -1.92236,0 -4.117585,1.21543 V 7.0480783 q 2.244835,-0.94257 4.712895,-0.94257 5.060159,0 5.060159,4.2540007 v 6.02754 q 0,1.5999 1.01699,1.5999 0.19844,0 0.4961,-0.0496 z m -5.03535,-1.33945 v -2.76572 h -0.868169 q -3.06338,0 -3.06338,2.20761 0,0.78135 0.5085,1.30225 0.5209,0.5085 1.31465,0.5085 1.26504,0 2.108399,-1.25264 z"
         style="font-style:normal;font-variant:normal;font-weight:600;font-stretch:normal;font-size:25.39999962px;line-height:1.25;font-family:Go;-inkscape-font-specification:'Go Semi-Bold';letter-spacing:0px;word-spacing:0px;fill:#ffffff;fill-opacity:1;stroke:none;stroke-width:0.26458332"
         id="path843"
         inkscape:connector-curvature="0" />
      <path
         d="m 119.6794,17.193199 v 2.54248 q -2.62929,0.60772 -4.65088,0.60772 -3.59667,0 -5.56865,-1.86035 -1.95957,-1.87276 -1.95957,-5.271 0,-7.1065407 7.80108,-7.1065407 2.158,0 4.2664,0.5333 v 2.6541003 q -2.59209,-0.73174 -4.00595,-0.73174 -4.15479,0 -4.15479,4.6384804 0,2.20761 1.19063,3.46025 1.20302,1.25264 3.31142,1.25264 1.48828,0 3.77031,-0.71934 z"
         style="font-style:normal;font-variant:normal;font-weight:600;font-stretch:normal;font-size:25.39999962px;line-height:1.25;font-family:Go;-inkscape-font-specification:'Go Semi-Bold';letter-spacing:0px;word-spacing:0px;fill:#ffffff;fill-opacity:1;stroke:none;stroke-width:0.26458332"
         id="path845"
         inkscape:connector-curvature="0" />
      <path
         d="m 133.49561,16.994769 v 2.57968 q -2.26963,0.76895 -4.55166,0.76895 -3.41064,0 -5.37021,-1.94717 -1.94717,-1.95957 -1.94717,-5.35781 0,-3.1502004 1.69912,-5.0353504 1.71152,-1.8975603 4.53926,-1.8975603 2.92695,0 4.27881,1.8851503 1.35185,1.87276 1.35185,5.9655304 h -7.99951 q 0.38447,3.89434 4.08037,3.89434 1.74873,0 3.91914,-0.85576 z m -8.03672,-5.10977 h 4.42764 q 0,-3.4850604 -1.97197,-3.4850604 -2.0836,0 -2.45567,3.4850604 z"
         style="font-style:normal;font-variant:normal;font-weight:600;font-stretch:normal;font-size:25.39999962px;line-height:1.25;font-family:Go;-inkscape-font-specification:'Go Semi-Bold';letter-spacing:0px;word-spacing:0px;fill:#ffffff;fill-opacity:1;stroke:none;stroke-width:0.26458332"
         id="path847"
         inkscape:connector-curvature="0" />
    </g>
  </g>
</svg>
